<?xml version="1.0" encoding="UTF-8"?>
<!DOCTYPE svg PUBLIC "-//W3C//DTD SVG 1.1//EN" "http://www.w3.org/Graphics/SVG/1.1/DTD/svg11.dtd">
<!-- Creator: CorelDRAW X6 -->
<svg xmlns="http://www.w3.org/2000/svg" xml:space="preserve" width="8.5in" height="11in" version="1.1" style="shape-rendering:geometricPrecision; text-rendering:geometricPrecision; image-rendering:optimizeQuality; fill-rule:evenodd; clip-rule:evenodd"
viewBox="0 0 8500 11000"
 xmlns:xlink="http://www.w3.org/1999/xlink">
 <defs>
  <style type="text/css">
   <![CDATA[
    .fil4 {fill:#0AC6F9}
    .fil10 {fill:#19C6B0}
    .fil1 {fill:#25C16E}
    .fil17 {fill:#326F70}
    .fil8 {fill:#3279B1}
    .fil5 {fill:#44A4EC}
    .fil2 {fill:#55F3F5}
    .fil12 {fill:#6E6DBA}
    .fil16 {fill:#755D1B}
    .fil3 {fill:#8ADF55}
    .fil6 {fill:#9B65C3}
    .fil13 {fill:#AD9051}
    .fil14 {fill:#C7CB28}
    .fil11 {fill:#C95291}
    .fil9 {fill:#D23C4D}
    .fil15 {fill:#D6A227}
    .fil7 {fill:#ED5A24}
    .fil0 {fill:#FDB402}
   ]]>
  </style>
 </defs>
 <g id="Layer_x0020_1">
  <metadata id="CorelCorpID_0Corel-Layer"/>
  <g id="_402924960">
   <path class="fil0" d="M4772 4780c-5,60 -7,43 -70,146l-77 89 5 -3c-4,34 -6,56 -23,84 -28,46 -12,24 -56,40l8 6c-5,57 -174,324 -196,378l-38 9 7 11c-12,66 -61,131 -106,176l-18 42c-5,43 -27,94 -52,112l-15 37c-1,4 -3,8 -4,11 -1,4 -3,7 -4,11 -94,264 -71,510 9,768 31,102 48,196 124,223 37,-11 93,-41 104,-70 2,-4 5,-16 7,-14 0,0 -8,-11 63,-62l200 -215c38,-16 27,-9 66,-84 30,-56 28,-69 70,-101 10,-64 41,-108 60,-175 80,-282 51,-762 51,-1089 0,-153 20,-301 -53,-400l-55 17 -8 54z"/>
   <path class="fil1" d="M4714 4603c47,21 27,5 37,54 -40,23 5,12 -52,15 -16,37 10,0 -17,27 -19,18 -5,5 -26,17l-135 73c-105,47 -117,92 -197,93 -16,44 14,12 -51,44 -25,13 -32,16 -55,29 -46,26 -64,47 -117,52 -16,49 -53,51 -103,78 -39,21 -61,41 -116,50 -17,36 0,15 -33,39 -6,4 -33,17 -45,23 -36,18 -51,29 -90,41l-27 1 -29 36c-23,18 -23,14 -48,34 -23,18 -27,24 -53,45l-139 139c-84,109 -172,230 -203,366 -17,74 -5,18 -26,74 -29,80 -54,245 -48,346 41,-15 35,-17 62,-43l1487 -1474c34,-30 65,-64 99,-108 -31,-49 -47,-54 -112,-69l7 15 30 3z"/>
   <path class="fil2" d="M2516 5174c20,11 -87,35 128,-17 40,-10 98,-24 135,-35 409,-122 922,-227 1359,-365 179,-57 363,-87 554,-146l-7 -11 -71 -31c-329,-22 -1022,-30 -1306,33 -336,74 -678,328 -792,572z"/>
   <path class="fil3" d="M3141 6278l4 20c70,14 121,-5 179,-1 16,-14 3,-9 31,-21 12,-5 34,-10 47,-13 52,-12 49,-13 100,-9 8,-11 -2,-6 18,-19 2,-1 32,-15 36,-16l242 -97c24,-34 33,-44 87,-52 5,-27 -22,-28 22,-20 19,-39 145,-141 170,-150 14,-38 28,-49 60,-72 7,-23 -5,-15 20,-41 25,-26 25,-18 51,-30l18 -42 7 -29c18,-61 45,-123 99,-147l-7 -11c12,-46 8,-32 27,-63l140 -234c25,-49 20,-65 67,-90l-8 -6c12,-88 27,-28 44,-117l35 -7 -5 3 17 -49c1,-3 3,-6 5,-10 29,-60 70,-94 85,-165l39 -10 8 -54 55 -17c-19,-48 -11,-38 -46,-56 -34,44 -65,78 -99,108l-1487 1474c-27,26 -20,28 -62,43z"/>
   <path class="fil4" d="M2516 5174l7 -1 4 56c105,20 162,72 259,91 113,22 196,45 318,44 53,0 116,3 168,0 149,-10 315,-92 415,-126l27 -1c20,-59 17,-32 79,-67 44,-25 27,-28 90,-36 14,-39 67,-59 101,-77 20,-11 38,-22 54,-31 35,-19 16,-15 64,-20 19,-26 -3,-6 27,-32 9,-8 15,-10 25,-16 50,-30 123,-75 171,-78 36,-50 315,-202 375,-210l15 -69 -22 9c-191,58 -376,89 -554,146 -437,138 -950,242 -1359,365 -37,11 -95,25 -135,35 -215,52 -108,28 -128,17z"/>
   <path class="fil5" d="M2381 5478c-5,40 -6,46 -16,90 -3,13 -4,22 -9,35l-18 31c0,64 -5,31 -14,45l0 293c43,22 8,2 44,38 216,-111 1213,-717 1290,-735l29 -36c-101,34 -267,116 -415,126 -52,3 -115,0 -168,0 -122,1 -205,-23 -318,-44 -97,-19 -154,-71 -259,-91l-4 -56 -17 16c-45,48 -122,234 -125,289z"/>
   <path class="fil6" d="M2362 6130c21,15 16,-17 13,44 15,197 239,482 336,577 116,114 386,300 610,323l41 -11 -27 -45c-129,-167 -236,-512 -207,-709 -100,10 -101,10 -204,-7 -33,-5 -60,-11 -90,-17 -64,-14 -40,6 -68,-33 -57,0 -80,-13 -122,-31 -16,-7 -47,-18 -57,-23 -49,-23 -27,-13 -43,-31 -61,-10 -35,2 -60,-39 -63,-1 -52,-22 -104,-47 -2,3 -5,6 -6,7l-12 40z"/>
   <path class="fil7" d="M4108 5902l-612 1070c-38,63 7,14 -56,54l1 55c79,-15 28,-2 46,22l1 7 260 0c27,-18 217,-49 284,-74 47,-18 76,-33 126,-54l110 -62c-77,-27 -93,-121 -124,-223 -80,-258 -104,-504 -9,-768 1,-4 3,-7 4,-11 1,-4 3,-8 4,-11l15 -37 -25 0c-8,48 15,19 -24,33z"/>
   <path class="fil8" d="M2368 6009c12,45 12,33 53,60 39,26 38,25 62,59l49 -6 11 45c66,2 101,29 168,54l54 31c68,-4 123,15 185,27 59,11 143,11 195,20l-4 -20c-6,-100 19,-265 48,-346 21,-56 9,0 26,-74 31,-136 118,-258 203,-366l139 -139c26,-21 31,-26 53,-45 25,-20 25,-16 48,-34 -76,18 -1073,624 -1290,735z"/>
   <path class="fil9" d="M4108 5902l-30 -2c-15,54 -34,55 -77,90 -37,31 -45,50 -93,60 -5,23 28,16 -22,20 -11,20 8,16 -32,39 -29,17 -26,10 -56,13 -27,41 -83,64 -136,85 -53,21 -111,53 -160,47 -12,11 1,8 -37,22 0,0 -42,9 -45,10 -41,8 -55,12 -96,12 -59,-4 -110,14 -179,1l1 18c23,239 26,321 123,518 14,28 28,54 43,81l57 97c19,27 29,25 23,75l48 -6c13,22 -49,12 46,22 -18,-24 33,-37 -46,-22l-1 -55c63,-40 18,9 56,-54l612 -1070c39,-15 16,15 24,-33l0 -5c-33,22 -12,-23 -24,38z"/>
   <path class="fil10" d="M4684 4600l7 11 22 -9 -15 69c-61,9 -339,160 -375,210 -47,2 -121,48 -171,78 -10,6 -15,8 -25,16 -30,26 -9,5 -27,32 -48,5 -29,2 -64,20 -16,9 -34,20 -54,31 -34,18 -87,38 -101,77 -63,8 -45,11 -90,36 -61,35 -58,7 -79,67 39,-12 55,-24 90,-41 11,-6 39,-18 45,-23 33,-23 17,-3 33,-39 56,-8 78,-29 116,-50 50,-27 87,-29 103,-78 52,-6 71,-26 117,-52 23,-13 30,-16 55,-29 64,-33 34,0 51,-44 80,-1 92,-46 197,-93l135 -73c21,-12 7,1 26,-17 27,-26 2,10 17,-27 57,-3 12,8 52,-15 -9,-48 10,-32 -37,-54l-30 -3 -7 -15 -12 -14 -52 -2 71 31z"/>
   <path class="fil11" d="M3321 7074l72 13c5,-49 -5,-47 -23,-75l-57 -97c-15,-27 -29,-53 -43,-81 -97,-197 -100,-278 -123,-518l-19 -7c-29,197 78,542 207,709l27 45 -41 11z"/>
   <path class="fil12" d="M2362 6130l13 44c2,-61 8,-29 -13,-44l12 -40c1,-2 4,-5 6,-7 52,25 41,46 104,47 25,41 -1,29 60,39 16,18 -6,8 43,31 11,5 41,16 57,23 41,18 65,31 122,31 28,40 5,19 68,33 30,6 57,12 90,17 103,17 104,17 204,7l19 7 -1 -18c-52,-8 -136,-9 -195,-20 -61,-11 -117,-30 -185,-27l-54 -31c-67,-25 -102,-52 -168,-54l-11 -45 -49 6c-24,-35 -23,-33 -62,-59 -41,-27 -41,-16 -53,-60 -36,-36 -1,-16 -44,-38l0 18 38 141z"/>
   <path class="fil13" d="M4078 5901c-24,9 -151,112 -170,150 -45,-9 -17,-8 -22,20 -54,7 -64,17 -87,52l-242 97c-5,2 -34,15 -36,16 -20,13 -10,8 -18,19 -50,-4 -47,-3 -100,9 -13,3 -35,8 -47,13 -28,12 -15,7 -31,21 41,0 55,-4 96,-12 3,-1 44,-10 45,-10 38,-13 25,-11 37,-22 50,6 107,-26 160,-47 53,-21 110,-44 136,-85 29,-2 26,5 56,-13 39,-23 21,-19 32,-39 50,-4 17,3 22,-20 48,-10 56,-29 93,-60 43,-35 61,-36 77,-90l30 2c12,-61 -9,-17 24,-38 13,-48 -13,30 6,-35 -32,23 -46,34 -60,72z"/>
   <path class="fil14" d="M4326 5528l38 -9c23,-54 192,-321 196,-378 -48,25 -43,41 -67,90l-140 234c-19,31 -15,17 -27,63z"/>
   <path class="fil15" d="M4371 6850c4,-2 10,-5 13,-7l43 -25c69,-44 161,-150 209,-212 0,-32 -11,-32 13,-23l-8 -24 -200 215c-71,51 -63,62 -63,62 -2,-3 -4,9 -7,14z"/>
   <path class="fil14" d="M4626 5015l77 -89c63,-102 64,-86 70,-146l-39 10c-15,72 -56,106 -85,165 -2,3 -4,6 -5,10l-17 49z"/>
   <path class="fil14" d="M4226 5715c46,-45 94,-110 106,-176 -54,24 -81,85 -99,147l-7 29z"/>
   <path class="fil14" d="M4552 5135c44,-16 28,6 56,-40 17,-27 19,-49 23,-84l-35 7c-17,88 -32,29 -44,117z"/>
   <path class="fil15" d="M4138 5829c-19,65 7,-13 -6,35l0 5 25 0c25,-18 47,-69 52,-112 -26,12 -26,5 -51,30 -26,26 -14,18 -20,41z"/>
   <path class="fil16" d="M4641 6558l8 24c-24,-8 -13,-8 -13,23 29,0 22,6 13,-23 52,-41 55,-68 84,-124l44 -84c-42,32 -40,45 -70,101 -40,75 -29,68 -66,84z"/>
   <path class="fil17" d="M2338 5633l18 -31c5,-13 6,-22 9,-35 10,-44 10,-49 16,-90l-23 40c-5,12 -7,21 -10,33 -6,27 -8,54 -10,82z"/>
  </g>
 </g>
</svg>
